# xmcd
#
# Track frame offsets: 
#        150
#        13674
#        21391
#        37873
#        52032
#        64187
#        79700
#        92503
#        122503
#        135024
#        147711
#        162707
#        176625
#        190701
#        203688
#        216331
#        231977
#        244555
#        259213
#        273329
#        287053
#        297672
#        311763
#        327161
#        339830
#
# Disc length: 4704 seconds
#
# Revision: 1
# Processed by: cddbd v1.5.2PL0 Copyright (c) Steve Scherf et al.
# Submitted via: ExactAudioCopyFreeDBPlugin 1.0
#
DISCID=75125e19
DTITLE=Various Artist - Essential Delta Blues - CD1
DYEAR=2009
DGENRE=Blues
TTITLE0=Robert Johnson - I Believe I'll Dust My Broom
TTITLE1=Big Joe Williams - Baby Please Don't Go
TTITLE2=Tommy Johnson - Canned Heat Blues
TTITLE3=Tony Hollins - Crawlin' King Snake
TTITLE4=Bukka White - Parchman Farm Blues
TTITLE5=Muddy Waters - Country Blues
TTITLE6=Sleepy John Estes - Special Agent Blues
TTITLE7=Son House - Walkin' Blues- Son House
TTITLE8=Mississippi John Hurt - Candy Man Blues
TTITLE9=Skip James - Hard Time Killin Floor Blues
TTITLE10=Blind Willie Johnson - Dark Was the Night-Cold Was the Ground
TTITLE11=Robert Lockwood Jr. - Little Boy Blue
TTITLE12=Bo Carter - Banana In Your Fruit Basket
TTITLE13=Robert Petway - Catfish Blues
TTITLE14=Tommy McClennan - Bottle It Up and Go
TTITLE15=John Lee Hooker - Landing Blues
TTITLE16=Elmore James - Standing At The Crossroads
TTITLE17=Arthur "Big Boy" Crudup - Death Valley Blues
TTITLE18=Blind Willie McTell - Stomp Down Rider
TTITLE19=Big Joe Williams - Rootin' Ground Hog
TTITLE20=Robert Johnson - Love In Vain
TTITLE21=Charley Patton - Shake It and Break It
TTITLE22=Ishman Bracey - Trouble Hearted Blues
TTITLE23=Bukka White - Fixin' to Die
TTITLE24=Skip James - I'm So Glad
EXTD=
EXTT0=
EXTT1=
EXTT2=
EXTT3=
EXTT4=
EXTT5=
EXTT6=
EXTT7=
EXTT8=
EXTT9=
EXTT10=
EXTT11=
EXTT12=
EXTT13=
EXTT14=
EXTT15=
EXTT16=
EXTT17=
EXTT18=
EXTT19=
EXTT20=
EXTT21=
EXTT22=
EXTT23=
EXTT24=
PLAYORDER=
